<?xml version="1.0" encoding="UTF-8" standalone="no"?>
<!-- Created with Inkscape (http://www.inkscape.org/) -->

<svg
   xmlns:dc="http://purl.org/dc/elements/1.1/"
   xmlns:cc="http://creativecommons.org/ns#"
   xmlns:rdf="http://www.w3.org/1999/02/22-rdf-syntax-ns#"
   xmlns:svg="http://www.w3.org/2000/svg"
   xmlns="http://www.w3.org/2000/svg"
   xmlns:sodipodi="http://sodipodi.sourceforge.net/DTD/sodipodi-0.dtd"
   xmlns:inkscape="http://www.inkscape.org/namespaces/inkscape"
   width="993.28467"
   height="222.51178"
   id="svg3279"
   version="1.1"
   inkscape:version="0.48.4 r9939"
   sodipodi:docname="logo.svg">
  <defs
     id="defs3281" />
  <sodipodi:namedview
     id="base"
     pagecolor="#ffffff"
     bordercolor="#666666"
     borderopacity="1.0"
     inkscape:pageopacity="0.0"
     inkscape:pageshadow="2"
     inkscape:zoom="0.98994949"
     inkscape:cx="402.89757"
     inkscape:cy="70.037585"
     inkscape:document-units="px"
     inkscape:current-layer="layer1"
     showgrid="false"
     inkscape:window-width="1920"
     inkscape:window-height="1028"
     inkscape:window-x="0"
     inkscape:window-y="0"
     inkscape:window-maximized="1"
     fit-margin-top="0"
     fit-margin-left="0"
     fit-margin-right="0"
     fit-margin-bottom="0" />
  <metadata
     id="metadata3284">
    <rdf:RDF>
      <cc:Work
         rdf:about="">
        <dc:format>image/svg+xml</dc:format>
        <dc:type
           rdf:resource="http://purl.org/dc/dcmitype/StillImage" />
        <dc:title></dc:title>
      </cc:Work>
    </rdf:RDF>
  </metadata>
  <g
     inkscape:label="Layer 1"
     inkscape:groupmode="layer"
     id="layer1"
     transform="translate(90.928063,-418.24914)">
    <path
       style="fill:#558b2f;fill-opacity:0.94117647"
       inkscape:connector-curvature="0"
       d="m 180.80527,430.28582 c 1.2875,-6.8125 7.8,-12.2375 14.8,-11.9375 31.75,-0.05 63.5,-0.0125 95.2625,-0.025 5.7125,-0.3 11.2375,3.05 13.825,8.1125 3.525,6.4625 1.1625,15.1375 -4.95,19.15 -4.375,3.225 -10.0875,2.5375 -15.2,2.6 -7.075,0.05 -14.15,-0.225 -21.2125,0.075 -3.0375,-0.1875 -4.8125,3.025 -4.5375,5.725 -0.0875,38.7125 0.0375,77.425 -0.0625,116.1375 -10,-0.1 -20,-0.5 -30.0125,-0.8375 -0.075,-38.425 0.0375,-76.85 -0.05,-115.2625 0.2375,-2.5875 -1.475,-5.65 -4.2875,-5.7125 -9.9625,-0.5125 -19.95,0.1625 -29.9,-0.2375 -8.65,-0.225 -15.6625,-9.3875 -13.675,-17.7875 z"
       id="path3159" />
    <path
       style="fill:#558b2f;fill-opacity:0.94117647"
       inkscape:connector-curvature="0"
       d="m 781.39277,422.22332 c 3.4125,-3.4125 8.425,-4.1625 13.05,-3.9375 24.47499,0.2375 48.97499,-0.2875 73.44999,0.275 -17.875,10.5 -36.5625,19.525 -54.8,29.35 -6.5875,0.675 -13.2875,0.05 -19.91249,0.275 -5.075,0.3 -10.275,-1.5875 -13.375,-5.7125 -4.975,-5.8 -4.1375,-15.275 1.5875,-20.25 z"
       id="path3161" />
    <path
       style="fill:#33691e;fill-opacity:0.94117647"
       inkscape:connector-curvature="0"
       d="m 867.89276,418.56082 c 6.75,-0.4375 13.5625,-0.1625 20.3375,-0.1375 7.0625,0.1 13.2,6.125 14,13.05 1.15,8.1125 -5.7125,16.3625 -13.925,16.575 -9.65,0.3 -19.3125,-0.175 -28.9625,0.1625 -3.0625,-0.1625 -4.8625,3.075 -4.55,5.8125 -0.025,56.275 -0.05,112.5625 0.013,168.85 0.225,4.475 -0.7,9.25 -3.9375,12.575 -4.2125,5.025 -11.8625,6.8875 -17.7375,3.725 -5.1,-2.5625 -8.5875,-8.1 -8.3375,-13.85 0,-56.675 -0.037,-113.3375 0.013,-170.0125 0.1875,-2.625 -0.575,-5.95 -3.4,-6.85 -2.7375,-0.5125 -5.5625,-0.3875 -8.3125,-0.55 18.2375,-9.825 36.925,-18.85 54.8,-29.35 z"
       id="path3163" />
    <path
       style="fill:#558b2f;fill-opacity:0.94117647"
       inkscape:connector-curvature="0"
       d="m -90.907233,434.09832 c -0.3875,-6.8875 4.675,-13.675 11.55,-14.8 5.4,-0.875 10.9,-0.3375 16.35,-0.45 14.025,0.2 28.4375,-1.15 42.0125,3.2375 17.8125001,5.35 33.05,18.325 41.4875,34.875 7.025,13.25 8.9875,28.7625 6.8,43.5 -2.3625,14.2875 -9.425,27.6375 -19.5124999,37.975 -13.1375,-3.5875 -26.4000001,-6.7125 -39.5375001,-10.375 8.075,-2.8 15.8625,-7.1375 21.225,-13.95 7.6125001,-9.3625 10.17500014,-22.25 7.7375001,-33.9625 -2.775,-11.9625 -11.1000001,-22.65 -22.3875001,-27.6875 -9.8,-4.825 -21.0625,-4.025 -31.6375,-3.6 -3.35,0.05 -4.9125,3.4375 -4.575,6.375 -0.0875,21.4375 0.125,42.8625 -0.0875,64.3 -9.825,-3 -19.6,-6.15 -29.4,-9.2375 -0.0375,-25.4 -0.0125,-50.8 -0.025,-76.2 z"
       id="path3165" />
    <path
       style="fill:#558b2f;fill-opacity:0.94117647"
       inkscape:connector-curvature="0"
       d="m 88.567767,423.13582 c 11.650003,-4.9 24.862503,-5.8 37.112503,-2.7625 17.875,4.475 33.3375,17.9625 39.65,35.35 4.175,9.7125 4.375,20.425 4.3125,30.8375 -0.3,26.1375 0.425,52.2875 -0.3625,78.425 -9.925,-0.975 -19.8375,-2.0875 -29.75,-3.225 -0.0375,-28.825 0.425,-57.65 -0.25,-86.4625 -0.1,-15.65 -15.675,-28.55 -31.025,-26.7625 -10.162503,0.9625 -19.787503,7.4375 -23.437503,17.1375 -2.8375,6.15 -2.175,13.1 -2.225,19.6875 0.0125,22.6875 0.05,45.375 -0.0125,68.075 -10.0375,-1.725 -20.0375,-3.575 -30.025,-5.5 -0.0625,-24.225 -0.0875,-48.45 0,-72.6625 0.4125,-22.375 15.05,-44.025 36.0125,-52.1375 z"
       id="path3167" />
    <path
       style="fill:#558b2f;fill-opacity:0.94117647"
       inkscape:connector-curvature="0"
       d="m 333.55527,447.72332 c 2.1,-14.25 14.0875,-26.225 28.3,-28.3625 17.0875,-3.175 35.525,8.825 38.8875,26.0125 7.0375,39.175 14.5125,78.275 21.5,117.4625 -36.9375,3.6625 -73.9625,6.9 -111.1,7.2375 7.425,-40.7875 14.75,-81.6 22.4125,-122.35 z"
       id="path3169" />
    <path
       style="fill:#558b2f;fill-opacity:0.94117647"
       inkscape:connector-curvature="0"
       d="m 454.69277,432.77332 c -0.2,-9.575 10.6,-16.9625 19.4875,-13.3125 6.425,2.075 9.35,8.55 11.8,14.275 17.0625,36.675 34.4125,73.225 51.4,109.9375 -9.925,2.5625 -20.2875,3.3625 -29.9625,6.85 -5.825,-12.35 -11.475,-24.7875 -17.475,-37.0375 -0.6,-2.175 -3.15,-1.75 -4.8125,-1.2875 -1.3625,1.55 -1.0875,3.6875 -1.175,5.6125 0.05,12.05 0.0625,24.1 0.0125,36.1625 -9.75,1.5375 -19.5125,3.1125 -29.3,4.475 -0.025,-41.9 -0.075,-83.7875 0.025,-125.675 z"
       id="path3171" />
    <path
       style="fill:#558b2f;fill-opacity:0.94117647"
       inkscape:connector-curvature="0"
       d="m 544.54277,434.07332 c -0.5375,-7.6875 5.925,-14.9625 13.5875,-15.4 8.5,-0.9375 16.7625,6.8125 16.0625,15.4 -0.0125,33.7125 0.0375,67.4125 -0.025,101.1125 -9.775,2.45 -19.6125,4.6 -29.3875,7.0375 -0.55,-36.0375 0.15,-72.1 -0.2375,-108.15 z"
       id="path3173" />
    <path
       style="fill:#558b2f;fill-opacity:0.94117647"
       inkscape:connector-curvature="0"
       d="m 606.04277,433.96082 c -0.4875,-8.4625 7.6,-15.9625 15.9875,-15.025 7.45,0.6125 13.7625,7.5625 13.35,15.1 0,28.075 0.0125,56.1375 -0.0125,84.2125 -9.75,2.925 -19.4875,5.8375 -29.3125,8.5 -0.0625,-30.925 -0.0375,-61.8625 -0.0125,-92.7875 z"
       id="path3175" />
    <path
       style="fill:#558b2f;fill-opacity:0.94117647"
       inkscape:connector-curvature="0"
       d="m 666.59277,456.14832 c 7.15,-23.525 32.2,-40.075 56.675,-36.9125 22.85,1.9625 43.2375,20.85 46.625,43.5625 0.025,1.6625 0.05,3.325 0.0625,5.0125 -9.0125,4.15 -18.25,7.8 -27.275,11.9375 -2.2,-5.3 -1.325,-11.2625 -3.4125,-16.575 -3.8125,-10.1 -15.5625,-16.2375 -26.05,-14.0875 -9.6625,1.825 -17.775,10.075 -18.9375,19.925 -1.3875,9.625 3.7875,18.525 9.25,26 -9.6125,3.725 -19.45,6.825 -28.975,10.7625 -9.2625,-14.475 -13.725,-32.9875 -7.9625,-49.625 z"
       id="path3177" />
    <path
       style="fill:#ffffff;fill-opacity:0.94117647"
       inkscape:connector-curvature="0"
       d="m 362.14277,457.91082 c 0.65,-5.375 9.725,-4.8625 10.2625,0.3625 5.25,26.95 9.85,54.0375 15.1125,81 -2.6125,5.6375 -9.3,3.95 -14.2875,4.1375 -7.5,-0.25 -15.05,0.475 -22.5125,-0.35 -4.4625,-2.7375 -2.525,-8.65 -2.025,-12.8375 4.575,-24.0875 8.725,-48.2625 13.45,-72.3125 z"
       id="path3183" />
    <path
       style="fill:#33691e;fill-opacity:0.94117647"
       inkscape:connector-curvature="0"
       d="m 769.89277,462.79832 c 0.4875,6.0625 2.0625,13.125 -2.175,18.275 -3.5,4.8875 -10.0375,7.2875 -15.8375,5.5125 -3.9,-0.925 -6.5625,-4.075 -9.2,-6.8375 9.025,-4.1375 18.2625,-7.7875 27.275,-11.9375 -0.0125,-1.6875 -0.0375,-3.35 -0.0625,-5.0125 z"
       id="path3185" />
    <path
       style="fill:#33691e;fill-opacity:0.94117647"
       inkscape:connector-curvature="0"
       d="m 674.55527,505.77332 c 9.525,-3.9375 19.3625,-7.0375 28.975,-10.7625 10.2125,12.275 22.825,22.225 34.7375,32.75 12.55,11.925 24.975,25.2875 30.1,42.225 4.25,12.525 3.9875,26.7 -1.6875,38.7375 -7.7875,17.0625 -24.675,29.85 -43.475,31.7125 -25.875,3.0625 -52.225,-15.875 -57.35,-41.4625 -1.2125,-7.2125 -2.8875,-16.1 2.8375,-21.875 5.3375,-6.4 16.25,-6.5125 21.6125,-0.0625 3.3125,3.1125 3.925,7.7625 4.175,12.075 0.5,10.225 8.75,19.3875 18.7875,21.1625 7.7875,1.575 16.45,-0.8375 21.7625,-6.8875 6.3875,-6.65 7.9,-17.0375 4.5375,-25.4875 -2.9375,-8.3875 -8.875,-15.2 -14.9,-21.525 -7.25,-7.775 -15.6625,-14.3125 -23.4875,-21.4625 -10.1,-8.4875 -19.125,-18.275 -26.625,-29.1375 z"
       id="path3187" />
    <path
       style="fill:#33691e;fill-opacity:0.94117647"
       inkscape:connector-curvature="0"
       d="m -90.882233,510.29832 c 9.8,3.0875 19.575,6.2375 29.4,9.2375 0.0875,3.2625 -0.625,8.2875 3.5625,9.3125 8.6625,1.125 17.5375,0.5625 26.1625,-0.7875 13.1375,3.6625 26.4000001,6.7875 39.5375001,10.375 -12.525,12.1875 -29.5125001,20.0125 -47.0500001,20.7375 -5.8125,0.4 -11.6375,-0.15 -17.45,0.25 -2.9125,0.075 -4.9875,3.075 -4.6875,5.8625 -0.075,20.0125 0.025,40.0375 -0.025,60.05 0.375,7.8125 -6.225,15.1875 -14.1,15.375 -8.3125,0.5625 -15.75,-7.1125 -15.3375,-15.3625 -0.025,-38.35 0.0125,-76.7 -0.0125,-115.05 z"
       id="path3189" />
    <path
       style="fill:#33691e;fill-opacity:0.94117647"
       inkscape:connector-curvature="0"
       d="m 606.05527,526.74832 c 9.825,-2.6625 19.5625,-5.575 29.3125,-8.5 0,34.0125 -0.0375,68.0375 0.025,102.05 0.0125,4.8625 0.4,10.3 -2.8625,14.3375 -3.9625,5.6375 -12.0875,7.85 -18.2375,4.5875 -5.1,-2.525 -8.5,-8.05 -8.2375,-13.7625 -0.0125,-32.9 0,-65.8125 0,-98.7125 z"
       id="path3191" />
    <path
       style="fill:#33691e;fill-opacity:0.94117647"
       inkscape:connector-curvature="0"
       d="m 544.78027,542.22332 c 9.775,-2.4375 19.6125,-4.5875 29.3875,-7.0375 -0.0375,30.075 0.025,60.1375 -0.025,90.2 0.125,6.2375 -4.05,12.5125 -10.1,14.325 -4.425,0.925 -9.4375,0.825 -13.25,-1.9 -4.25,-2.75 -5.7875,-7.8125 -7.925,-12.1125 -11.8,-25.0625 -23.5125,-50.175 -35.45,-75.175 9.675,-3.4875 20.0375,-4.2875 29.9625,-6.85 0.675,1.2125 1.35,2.425 2.0375,3.6625 3.225,0.075 5.4625,-1.7625 5.3625,-5.1125 z"
       id="path3193" />
    <path
       style="fill:#33691e;fill-opacity:0.94117647"
       inkscape:connector-curvature="0"
       d="m 52.555267,547.93582 c 9.9875,1.925 19.9875,3.775 30.025,5.5 0,9.8 -0.1125,19.6 0,29.4125 0.025,8.825 4.7875,17.25 11.85,22.425 6.075003,4.45 14.025003,5.925 21.387503,4.75 11.625,-1.7625 21.8375,-11.5 23.2625,-23.3125 0.975,-8.2875 0.475,-16.65 0.45,-24.95 9.9125,1.1375 19.825,2.25 29.75,3.225 0.1625,10.1375 1,20.4375 -1.35,30.4125 -4.45,18.75 -18.7,35 -36.9125,41.45 -10.0375,3.8125 -21.1375,4.1875 -31.637503,2.375 -24.7625,-4.9 -44.9625,-27.275 -46.6375,-52.5875 -0.4125,-12.8875 -0.0375,-25.8 -0.1875,-38.7 z"
       id="path3195" />
    <path
       style="fill:#33691e;fill-opacity:0.94117647"
       inkscape:connector-curvature="0"
       d="m 454.66777,558.44832 c 9.7875,-1.3625 19.55,-2.9375 29.3,-4.475 -0.0625,23.825 0.0375,47.6625 -0.0375,71.5 0.25,7.725 -6.575,15.2 -14.475,14.7625 -8.025,0.6125 -15.225,-6.8875 -14.7625,-14.8125 -0.0375,-22.325 0.0125,-44.65 -0.025,-66.975 z"
       id="path3197" />
    <path
       style="fill:#33691e;fill-opacity:0.94117647"
       inkscape:connector-curvature="0"
       d="m 311.14277,570.07332 c 37.1375,-0.3375 74.1625,-3.575 111.1,-7.2375 3.5875,20.025 7.325,40.025 11.1125,60.0125 2.1125,8.9 -6.0375,18.5125 -15.1875,17.875 -6.725,-0.1125 -12.7125,-5.3 -14.125,-11.8125 -3.6375,-18.0125 -6.4,-36.2 -10.2625,-54.175 -3.7,-1.7625 -7.8625,-1.3 -11.825,-1.3125 -12.4375,0.1375 -24.875,-0.15 -37.3125,0.1125 -2.55,-0.15 -4.4625,2.0875 -4.7125,4.4875 -3.275,16.9 -6.1,33.8875 -9.45,50.7625 -1.5625,7.575 -9.5625,13.45 -17.3,11.6375 -8.0625,-1.3125 -14.05,-10.275 -11.65,-18.2125 3.2875,-17.3625 6.3625,-34.7625 9.6125,-52.1375 z"
       id="path3199" />
    <path
       style="fill:#33691e;fill-opacity:0.94117647"
       inkscape:connector-curvature="0"
       d="m 228.71777,569.28582 c 10.0125,0.3375 20.0125,0.7375 30.0125,0.8375 -0.05,18.3875 0.025,36.7875 -0.025,55.175 0.3625,8.725 -8.2125,16.55 -16.8625,15.325 -7.325,-0.8625 -13.3375,-7.7875 -13.0875,-15.1625 -0.0625,-18.7375 0.025,-37.4625 -0.0375,-56.175 z"
       id="path3201" />
  </g>
</svg>
